PathFileType	4	(X/Y/Z)	C:/Users/beibeiliu/ov580/test_trc/User2\sequence.36_training_dense_right.trc
DataRate	CameraRate	NumFrames	NumMarkers	Units	OrigDataRate	OrigDataStartFrame	OrigNumFrames
120	120	10	19	mm	120	188	500
Frame#	Time	ThumbCMC			ThumbMCP			ThumbIP			ThumbTip			IndexMCP			IndexPIP			IndexTip			MiddleMCP			MiddlePIP			MiddleTip			RingMCP			RingPIP			RingTip			PinkyMCP			PinkyPIP			PinkyTip			BackHand1			BackHand2			BackHand3	
		X0	Y0	Z0	X1	Y1	Z1	X2	Y2	Z2	X3	Y3	Z3	X4	Y4	Z4	X5	Y5	Z5	X6	Y6	Z6	X7	Y7	Z7	X8	Y8	Z8	X9	Y9	Z9	X10	Y10	Z10	X11	Y11	Z11	X12	Y12	Z12	X13	Y13	Z13	X14	Y14	Z14	X15	Y15	Z15	X16	Y16	Z16	X17	Y17	Z17	X18	Y18	Z18	
187	1.55833	109.414	-3.11964	61.3507	78.1944	11.5084	40.5632	48.4397	17.3424	22.4089	22.908	7.68282	11.7066	82.8528	-42.1851	-8.87563	54.5729	-29.9839	-30.9931	31.7971	-10.9605	-16.2651	67.7393	-59.4719	-6.7382	36.1513	-42.9147	-24.3719	19.3921	-15.2677	-2.34883	51.0879	-69.6973	5.15678	28.408	-56.2032	-7.47533	13.3837	-23.2466	6.74133	38.6808	-75.1559	29.1797	14.4482	-59.7359	13.0478	0.744946	-32.1782	12.5493	88.9301	-73.3274	58.0604	105.635	-70.1763	83.3354	118.038	-46.2206	52.3764	
188	1.56667	110.519	-4.90506	60.9001	82.3391	16.1989	39.9771	50.9436	16.7556	18.7504	26.2266	10.8717	9.39288	83.9893	-42.473	-12.2154	55.0782	-32.8327	-28.6971	33.6358	-11.5401	-16.7145	67.5139	-60.7466	-9.65208	36.2053	-49.745	-21.9513	20.7938	-14.4179	-1.51884	52.6111	-68.813	6.5402	26.0831	-57.2807	-6.65099	12.6112	-24.3903	6.66003	42.9293	-71.814	30.4072	18.1187	-57.6586	11.0259	4.29383	-29.1107	11.308	88.2889	-71.5651	60.0857	105.819	-70.1677	82.4978	118.567	-50.3569	57.7719	
189	1.575	111.703	-3.00615	55.4741	82.7528	14.0305	35.7776	51.374	18.9353	15.0377	27.7249	8.71447	8.5246	85.353	-42.8662	-9.65701	57.0379	-32.3234	-30.892	37.7674	-9.38321	-20.0022	67.2743	-61.7033	-9.16093	36.0011	-43.2012	-24.8039	22.6861	-13.9937	-5.48658	49.988	-69.113	4.35857	27.1493	-53.5534	-7.98919	13.7811	-24.8315	7.00151	40.7655	-73.4634	33.7257	19.3623	-55.2732	10.8921	7.75981	-30.2616	13.2575	87.6251	-73.6237	59.0833	106.294	-69.5418	84.8597	119.795	-47.9429	54.6268	
190	1.58333	114.433	-4.85866	58.461	84.2339	11.7571	35.1748	54.7264	17.4107	16.7691	28.0655	6.31473	6.52571	85.5081	-44.56	-12.5881	58.5223	-34.836	-30.6962	37.2944	-8.95735	-18.5849	68.0335	-61.86	-5.90033	34.6308	-44.2414	-22.0279	23.4509	-12.2842	-0.821627	49.1692	-68.026	4.35547	27.1282	-52.8995	-7.28441	15.9	-18.8978	7.53454	44.3176	-70.2044	31.9185	20.0667	-55.3903	11.0783	8.9129	-27.8785	14.7037	85.1812	-73.6627	57.1432	106.165	-69.5235	87.2632	121.229	-49.0288	53.5702	
191	1.59167	111.917	-8.53703	54.302	86.1526	9.16385	38.2332	52.9301	14.0931	12.9421	30.0521	7.0774	6.58023	81.5721	-47.9955	-12.451	58.4276	-36.9033	-29.4911	40.3725	-11.1234	-20.6489	63.6948	-62.9852	-9.16016	36.2149	-46.0313	-22.0424	25.8671	-11.4906	-3.01093	50.3105	-69.9679	8.66071	27.8497	-51.4425	-7.21417	19.5524	-18.4816	5.26197	40.1847	-72.4551	30.8075	16.991	-54.2183	12.844	12.9066	-21.8163	15.5973	89.7121	-73.4058	56.2555	106.004	-68.787	85.5715	116.785	-52.4924	52.9281	
192	1.6	113.98	-8.39263	54.3642	85.2862	11.3685	34.167	54.3465	8.30857	14.765	29.9766	2.63347	7.04049	86.0942	-45.8525	-12.9607	59.297	-39.2072	-27.2816	39.694	-8.20388	-16.1739	65.0549	-63.5505	-8.32018	37.856	-43.0846	-22.7774	26.9789	-9.97522	-4.73689	49.8512	-67.6855	4.01382	26.1236	-52.9405	-6.2541	20.8691	-15.6852	4.49627	42.6096	-68.4868	27.1731	18.5663	-50.4012	11.3759	9.97553	-22.7361	17.6555	87.4682	-73.1194	57.2557	104.857	-70.2398	82.3296	121.795	-52.1146	56.1223	
193	1.60833	114.621	-9.2855	58.8301	84.1417	8.40839	32.7378	56.5655	12.2518	17.385	29.9445	0.621129	7.2502	87.1968	-45.9927	-9.93599	60.674	-36.1658	-28.9244	42.3449	-5.77076	-16.7986	66.7671	-60.9825	-9.62779	40.9593	-44.9805	-24.1285	27.8254	-11.5911	-6.79117	51.7673	-69.2089	9.08585	28.6292	-49.2069	-8.15873	19.4161	-15.4708	3.75483	39.5591	-70.5333	32.0863	16.9159	-48.3971	12.1144	10.4643	-18.9977	19.6086	85.3932	-76.824	55.6054	103.502	-73.4543	87.9274	121.063	-52.776	57.2309	
194	1.61667	115.602	-7.26934	56.7874	85.6748	10.4125	33.8902	55.0553	11.435	14.65	31.2549	0.259185	9.87612	82.4479	-47.1117	-11.5814	58.1727	-33.5876	-28.3603	39.7918	-9.44399	-14.1764	64.2183	-62.6074	-9.10573	35.7566	-44.2926	-21.4576	24.7774	-10.8358	-5.12793	49.7267	-67.6652	7.75806	26.1469	-51.7511	-5.45717	15.8951	-19.7156	4.22728	41.7103	-67.132	26.8396	18.3666	-51.4424	14.3592	14.3609	-21.0231	16.5888	85.9428	-73.3457	55.1739	104.356	-73.0974	85.442	120.846	-53.1651	53.7069	
195	1.625	113.11	-9.89698	55.6608	84.2326	7.5236	34.7757	55.6383	11.1323	18.5353	31.4201	-2.30353	12.7728	81.591	-45.1296	-11.9496	57.493	-31.7246	-28.8754	40.8356	-1.94828	-14.7235	66.2173	-59.7959	-9.82481	36.4877	-41.6219	-22.4924	22.0251	-12.6953	-3.6201	46.7368	-67.3052	8.13427	25.4007	-51.302	-5.04647	16.0795	-17.1692	4.78164	39.4151	-68.3952	28.1954	16.3522	-50.9813	15.2496	13.4813	-16.9059	17.0984	88.4485	-70.3231	57.3948	102.751	-70.9973	85.7916	118.796	-52.3657	56.1962	
196	1.63333	112.87	-8.43344	57.3837	83.4957	7.96909	35.5731	54.2285	10.6114	19.6261	28.6732	1.71756	10.7863	81.5116	-44.939	-13.3781	56.5457	-31.7444	-27.3472	39.7383	-3.55468	-14.7918	63.3	-59.7169	-9.53021	34.1753	-41.2597	-21.7708	22.4246	-7.71308	-0.931699	49.6902	-66.4149	6.81786	22.9326	-50.425	-4.45721	14.8781	-17.8986	7.97712	41.5247	-66.6303	29.307	15.2294	-46.7883	14.4674	7.03504	-20.8341	18.6001	84.56	-76.1472	56.6132	102.607	-71.2207	89.0389	117.069	-52.6831	55.4798	
